<svg xmlns="http://www.w3.org/2000/svg" xmlns:xlink="http://www.w3.org/1999/xlink" width="500" zoomAndPan="magnify" viewBox="0 0 375 374.999991" height="500" preserveAspectRatio="xMidYMid meet" version="1.0"><defs><g/><clipPath id="2c43ebb7ec"><path d="M 21.234375 21.234375 L 353.765625 21.234375 L 353.765625 353.765625 L 21.234375 353.765625 Z M 21.234375 21.234375 " clip-rule="nonzero"/></clipPath><clipPath id="5350512f72"><path d="M 187.5 353.765625 C 143.109375 353.765625 101.3125 336.488281 69.945312 305.054688 C 38.511719 273.6875 21.234375 231.890625 21.234375 187.5 C 21.234375 143.109375 38.511719 101.3125 69.945312 69.945312 C 101.3125 38.511719 143.109375 21.234375 187.5 21.234375 C 231.890625 21.234375 273.6875 38.511719 305.054688 69.945312 C 336.488281 101.378906 353.765625 143.109375 353.765625 187.5 C 353.765625 231.890625 336.488281 273.6875 305.054688 305.054688 C 273.6875 336.488281 231.890625 353.765625 187.5 353.765625 Z M 187.5 31.203125 C 145.769531 31.203125 106.496094 47.484375 76.988281 76.988281 C 47.484375 106.496094 31.203125 145.769531 31.203125 187.5 C 31.203125 229.230469 47.484375 268.503906 76.988281 298.011719 C 106.496094 327.515625 145.769531 343.796875 187.5 343.796875 C 229.230469 343.796875 268.503906 327.515625 298.011719 298.011719 C 327.515625 268.503906 343.796875 229.230469 343.796875 187.5 C 343.796875 145.769531 327.515625 106.496094 298.011719 76.988281 C 268.503906 47.484375 229.230469 31.203125 187.5 31.203125 Z M 187.5 31.203125 " clip-rule="nonzero"/></clipPath></defs><g clip-path="url(#2c43ebb7ec)"><g clip-path="url(#5350512f72)"><path fill="#000000" d="M 21.234375 21.234375 L 353.765625 21.234375 L 353.765625 353.765625 L 21.234375 353.765625 Z M 21.234375 21.234375 " fill-opacity="1" fill-rule="nonzero"/></g></g><g fill="#000000" fill-opacity="1"><g transform="translate(72.955283, 225.124988)"><g><path d="M 10.089844 -82.113281 L 10.089844 0 L 21.9375 0 L 21.9375 -57.363281 L 61.585938 0 L 70.96875 0 L 70.96875 -82.113281 L 59.238281 -82.113281 L 59.238281 -24.28125 L 19.238281 -82.113281 Z M 10.089844 -82.113281 "/></g></g></g><g fill="#000000" fill-opacity="1"><g transform="translate(221.005932, 225.124988)"><g><path d="M 10.089844 0 L 21.9375 0 L 21.9375 -36.011719 L 54.78125 -36.011719 L 54.78125 -47.039062 L 21.9375 -47.039062 L 21.9375 -71.324219 L 59.003906 -71.324219 L 59.003906 -82.816406 L 10.089844 -82.816406 Z M 10.089844 0 "/></g></g></g><path stroke-linecap="butt" transform="matrix(0, -0.75, 0.75, 0, 181.869938, 253.980451)" fill="none" stroke-linejoin="miter" d="M -0.0000232374 7.501541 L 177.296863 7.501541 " stroke="#000000" stroke-width="15" stroke-opacity="1" stroke-miterlimit="4"/></svg>