<svg xmlns="http://www.w3.org/2000/svg" xmlns:xlink="http://www.w3.org/1999/xlink" width="500" zoomAndPan="magnify" viewBox="0 0 375 374.999991" height="500" preserveAspectRatio="xMidYMid meet" version="1.0"><defs><g/><clipPath id="0ee445a218"><path d="M 116 135 L 221 135 L 221 275 L 116 275 Z M 116 135 " clip-rule="nonzero"/></clipPath><clipPath id="ec83f19327"><path d="M 188.539062 135.710938 L 220.414062 154.949219 L 148.382812 274.300781 L 116.507812 255.0625 Z M 188.539062 135.710938 " clip-rule="nonzero"/></clipPath><clipPath id="5bc4109813"><path d="M 188.539062 135.710938 L 220.414062 154.949219 L 148.382812 274.300781 L 116.507812 255.0625 Z M 188.539062 135.710938 " clip-rule="nonzero"/></clipPath><clipPath id="536f02a7b0"><path d="M 119 154 L 190 154 L 190 226 L 119 226 Z M 119 154 " clip-rule="nonzero"/></clipPath><clipPath id="ab4b096f28"><path d="M 146.542969 154.71875 L 189.972656 180.929688 L 163.269531 225.183594 L 119.835938 198.96875 Z M 146.542969 154.71875 " clip-rule="nonzero"/></clipPath><clipPath id="42f0cb9346"><path d="M 146.542969 154.71875 L 189.972656 180.929688 L 163.269531 225.183594 L 119.835938 198.96875 Z M 146.542969 154.71875 " clip-rule="nonzero"/></clipPath><clipPath id="262d329070"><path d="M 170 159 L 238 159 L 238 226 L 170 226 Z M 170 159 " clip-rule="nonzero"/></clipPath><clipPath id="b55a877591"><path d="M 194.492188 159.441406 L 237.925781 185.652344 L 214.066406 225.183594 L 170.632812 198.96875 Z M 194.492188 159.441406 " clip-rule="nonzero"/></clipPath><clipPath id="3395bbd246"><path d="M 194.492188 159.441406 L 237.925781 185.652344 L 214.066406 225.183594 L 170.632812 198.96875 Z M 194.492188 159.441406 " clip-rule="nonzero"/></clipPath></defs><g fill="#3d3b3a" fill-opacity="1"><g transform="translate(66.996961, 194.309439)"><g><path d="M 142.734375 -127.609375 C 143.140625 -127.609375 143.34375 -127.203125 143.34375 -126.390625 C 143.34375 -125.578125 143.140625 -125.171875 142.734375 -125.171875 C 136.878906 -125.171875 132.757812 -123.738281 130.375 -120.875 C 127.988281 -118.019531 126.796875 -113.117188 126.796875 -106.171875 L 126.796875 2.25 C 126.796875 2.519531 126.457031 2.722656 125.78125 2.859375 C 125.101562 2.992188 124.625 2.925781 124.34375 2.65625 L 32.0625 -110.875 L 28.59375 -114.75 L 28.59375 -21.234375 C 28.59375 -14.296875 29.75 -9.429688 32.0625 -6.640625 C 34.375 -3.847656 38.390625 -2.453125 44.109375 -2.453125 C 44.515625 -2.453125 44.71875 -2.039062 44.71875 -1.21875 C 44.71875 -0.40625 44.515625 0 44.109375 0 C 40.835938 0 38.316406 -0.0664062 36.546875 -0.203125 L 26.75 -0.40625 L 16.75 -0.203125 C 14.976562 -0.0664062 12.320312 0 8.78125 0 C 8.507812 0 8.375 -0.40625 8.375 -1.21875 C 8.375 -2.039062 8.507812 -2.453125 8.78125 -2.453125 C 14.632812 -2.453125 18.648438 -3.8125 20.828125 -6.53125 C 23.003906 -9.257812 24.09375 -14.160156 24.09375 -21.234375 L 24.09375 -119.046875 C 19.332031 -123.128906 14.429688 -125.171875 9.390625 -125.171875 C 8.984375 -125.171875 8.78125 -125.578125 8.78125 -126.390625 C 8.78125 -127.203125 8.984375 -127.609375 9.390625 -127.609375 L 16.75 -127.40625 C 18.238281 -127.269531 20.347656 -127.203125 23.078125 -127.203125 C 25.390625 -127.203125 27.289062 -127.269531 28.78125 -127.40625 C 30.28125 -127.539062 31.441406 -127.609375 32.265625 -127.609375 C 33.210938 -127.609375 33.992188 -127.367188 34.609375 -126.890625 C 35.222656 -126.421875 35.9375 -125.4375 36.75 -123.9375 C 38.25 -121.488281 39.882812 -119.175781 41.65625 -117 L 122.3125 -16.75 L 122.3125 -106.171875 C 122.3125 -113.117188 121.222656 -118.019531 119.046875 -120.875 C 116.867188 -123.738281 112.921875 -125.171875 107.203125 -125.171875 C 106.929688 -125.171875 106.796875 -125.578125 106.796875 -126.390625 C 106.796875 -127.203125 106.929688 -127.609375 107.203125 -127.609375 L 114.953125 -127.40625 C 119.035156 -127.132812 122.304688 -127 124.765625 -127 C 127.078125 -127 130.410156 -127.132812 134.765625 -127.40625 Z M 142.734375 -127.609375 "/></g></g></g><g fill="#3d3b3a" fill-opacity="1"><g transform="translate(166.218992, 306.139833)"><g><path d="M 95.65625 -105 C 95.65625 -104.570312 95.265625 -104.359375 94.484375 -104.359375 C 93.710938 -104.359375 93.328125 -104.570312 93.328125 -105 C 93.328125 -112.207031 91.414062 -117.929688 87.59375 -122.171875 C 83.78125 -126.410156 78.765625 -128.53125 72.546875 -128.53125 L 57.90625 -128.53125 C 52.675781 -128.53125 48.785156 -128.175781 46.234375 -127.46875 C 43.691406 -126.769531 41.925781 -125.5 40.9375 -123.65625 C 39.945312 -121.820312 39.453125 -118.992188 39.453125 -115.171875 L 39.453125 -68.515625 L 62.578125 -68.515625 C 69.785156 -68.515625 74.875 -69.609375 77.84375 -71.796875 C 80.8125 -73.992188 82.296875 -77.773438 82.296875 -83.140625 C 82.296875 -83.429688 82.71875 -83.578125 83.5625 -83.578125 C 84.414062 -83.578125 84.84375 -83.429688 84.84375 -83.140625 L 84.625 -66.390625 C 84.625 -62.285156 84.695312 -59.242188 84.84375 -57.265625 L 85.0625 -47.296875 C 85.0625 -47.015625 84.632812 -46.875 83.78125 -46.875 C 82.9375 -46.875 82.515625 -47.015625 82.515625 -47.296875 C 82.515625 -53.660156 80.992188 -58.113281 77.953125 -60.65625 C 74.910156 -63.207031 69.5 -64.484375 61.71875 -64.484375 L 39.453125 -64.484375 L 39.453125 -18.03125 C 39.453125 -13.5 40.085938 -10.207031 41.359375 -8.15625 C 42.628906 -6.113281 45.066406 -4.664062 48.671875 -3.8125 C 52.285156 -2.96875 58.050781 -2.546875 65.96875 -2.546875 C 66.394531 -2.546875 66.609375 -2.117188 66.609375 -1.265625 C 66.609375 -0.421875 66.394531 0 65.96875 0 C 60.164062 0 55.640625 -0.0703125 52.390625 -0.21875 L 33.9375 -0.421875 L 19.9375 -0.21875 C 17.394531 -0.0703125 13.859375 0 9.328125 0 C 9.046875 0 8.90625 -0.421875 8.90625 -1.265625 C 8.90625 -2.117188 9.046875 -2.546875 9.328125 -2.546875 C 14.847656 -2.546875 18.914062 -2.898438 21.53125 -3.609375 C 24.144531 -4.316406 25.910156 -5.691406 26.828125 -7.734375 C 27.742188 -9.785156 28.203125 -12.9375 28.203125 -17.1875 L 28.203125 -115.390625 C 28.203125 -119.628906 27.742188 -122.738281 26.828125 -124.71875 C 25.910156 -126.695312 24.144531 -128.070312 21.53125 -128.84375 C 18.914062 -129.625 14.847656 -130.015625 9.328125 -130.015625 C 9.046875 -130.015625 8.90625 -130.4375 8.90625 -131.28125 C 8.90625 -132.132812 9.046875 -132.5625 9.328125 -132.5625 L 93.328125 -132.5625 C 94.597656 -132.5625 95.234375 -131.925781 95.234375 -130.65625 Z M 95.65625 -105 "/></g></g></g><g clip-path="url(#0ee445a218)"><g clip-path="url(#ec83f19327)"><g clip-path="url(#5bc4109813)"><path fill="#ffffff" d="M 188.539062 135.710938 L 220.414062 154.949219 L 148.382812 274.300781 L 116.507812 255.0625 Z M 188.539062 135.710938 " fill-opacity="1" fill-rule="nonzero"/></g></g></g><g clip-path="url(#536f02a7b0)"><g clip-path="url(#ab4b096f28)"><g clip-path="url(#42f0cb9346)"><path fill="#ffffff" d="M 146.542969 154.71875 L 189.972656 180.929688 L 163.269531 225.183594 L 119.835938 198.96875 Z M 146.542969 154.71875 " fill-opacity="1" fill-rule="nonzero"/></g></g></g><g clip-path="url(#262d329070)"><g clip-path="url(#b55a877591)"><g clip-path="url(#3395bbd246)"><path fill="#ffffff" d="M 194.492188 159.441406 L 237.925781 185.652344 L 214.066406 225.183594 L 170.632812 198.96875 Z M 194.492188 159.441406 " fill-opacity="1" fill-rule="nonzero"/></g></g></g><path stroke-linecap="butt" transform="matrix(0.431053, -0.613753, 0.613753, 0.431053, 103.394676, 290.177911)" fill="none" stroke-linejoin="miter" d="M 0.00226849 2.49943 L 308.541194 2.498495 " stroke="#3d3b3a" stroke-width="5" stroke-opacity="1" stroke-miterlimit="4"/></svg>